<svg xmlns="http://www.w3.org/2000/svg" viewBox="0 0 1366 376"><defs><style>.cls-1{fill:#2f4858;}</style></defs><title>Asset 2</title><g id="Layer_2" data-name="Layer 2"><g id="Layer_1-2" data-name="Layer 1"><path class="cls-1" d="M0,51.66V376H1366V17.45a30.94,30.94,0,0,0-9.7,0c-5.44,1.16-11.08,1.82-16.75,2.49-8.38,1-16.84,2-24.89,4.6-6.15,1.86-13.72,1-20.58-.34a31,31,0,0,0-9.7-.67c-4.21.54-8.11-.68-11.94-1.88-.91-.28-1.82-.56-2.73-.82-6.38-1.69-12.54-1.69-19.16-1.19-2.68.12-5.36.08-8,0-1.34,0-2.68,0-4,0-3.31,0-6.38.17-8.28,3-1.42,2.2-4.49,1.86-7.33,1.35l-.73-.14a74,74,0,0,0-12-1.71c-10.18-.68-18.69,2-27.21,5.23-2.84,1.18-5.92,2.36-9.23,1.18-4.57-1.75-9.15-1.16-13.72-.57a60.86,60.86,0,0,1-6.15.57c-7.77.17-15.32,1-23.07,1.77l-.82.09a27.72,27.72,0,0,1-10.65-1.52c-6.2-2.06-12.58-1.55-18.82-1.05l-2.71.21c-11.59.84-22.71-.17-32.88-3.89a21,21,0,0,0-6-.92,22.34,22.34,0,0,1-5.57-.77c-8.75-2.7-17.5-4.89-26.49-6.92-3-.77-6.07,0-9.11.8l-.83.22c-1.92.5-3.77,1.15-5.62,1.79-4.32,1.5-8.64,3-13.78,2.76-2.37-.08-4.67-.21-7-.33s-4.61-.26-7-.34l-1.1-.1c-2-.18-4-.37-5.76.77a3.62,3.62,0,0,1-1.89.17c-5.35-1.59-11.07-1.71-16.76-1.84-3.37-.07-6.72-.14-10-.52-.31,0-.64,0-1,0a10.38,10.38,0,0,0-2.09,0c-12.07,2.87-22.95,1-32.41-4.56a38.41,38.41,0,0,0-7.75-2.94,40.13,40.13,0,0,1-7.15-2.63l-.29-.11c-.43-.17-.93-.36-1.12-.23-5.59,1.86-9.84,0-14-1.87-.77-.34-1.54-.68-2.31-1-8.75-3.37-18-4.39-26.5-1.35-5.44,1.86-9.23,1.69-13.72-.17-4.3-1.72-9.05-2.09-13.79-2.45A60.84,60.84,0,0,1,815.25.23c-2.45-.67-4.45.26-6.23,1.1-.46.21-.9.42-1.34.59C800.82,5.13,793,6.31,785,6.65a9.79,9.79,0,0,0-6.39,2A16.1,16.1,0,0,1,763.2,11.2l-1.09-.31c-4.34-1.27-8.52-2.49-13.1.31-1.32.95-3.46.28-5.09-.22l-.36-.11A59,59,0,0,0,723.93,9a36.91,36.91,0,0,0-7.39,1.6c-1.6.46-3.22.93-4.91,1.27a19.1,19.1,0,0,1-9.7-.34c-13.49-4.22-27.44-7.43-42.35-7.76a50.8,50.8,0,0,1-11.36-1.52c-5-1.5-9.85-.35-14.5.75l-1.82.43a11.17,11.17,0,0,0-1.6.49,6.3,6.3,0,0,1-3.36.52c-6.33-1-12.41.08-18.42,1.12-2.3.4-4.6.79-6.89,1.08a33.77,33.77,0,0,1-4,.16,27.88,27.88,0,0,0-10.41,1.35c-6.18,2.08-12.77,3.16-19.36,4.23-2,.33-4,.66-6,1a19.93,19.93,0,0,1-7.84-.56c-1.05-.24-2.12-.47-3.28-.62-5-.57-10,.18-15,.94l-2.73.41-2.1.38c-5,.93-10,1.86-15.17,1a8.16,8.16,0,0,0-3.55.17c-9.46,3.88-19.87,4.39-30.52,4.72a7.9,7.9,0,0,0-4.06,1.54,10.65,10.65,0,0,1-4.69,1.84,8.46,8.46,0,0,0-1.74.23,5.13,5.13,0,0,1-2.29.11c-3.47-1-7.07-.93-10.66-.88a41.12,41.12,0,0,1-9.68-.64c-7.1-1.58-14.31-1.35-21.48-1.13-3.58.12-7.15.23-10.69.12a14.39,14.39,0,0,0-1.59-.06,6.43,6.43,0,0,1-2.91-.45c-3.79-1.69-7.33-2.36-10.41.84a4.63,4.63,0,0,1-4.73.85c-3.55-1.18-7.1-.85-10.65-.51a7,7,0,0,0-.74.07,2.87,2.87,0,0,1-1.62-.07c-4.61-2.41-10-2.83-15.39-3.24a77.22,77.22,0,0,1-8.5-1c-9-1.86-18-1.86-27.21-1.18a37.9,37.9,0,0,1-7.49-.52,35.85,35.85,0,0,0-8.36-.49c-3.9.33-7.87.54-11.83.75s-7.93.43-11.83.76c-3.31.17-5.92.17-9-1a25.83,25.83,0,0,0-14-2c-2.13.33-4,.67-5.44,2-3.08,2.7-7.1,3.55-11.59,3.38-2.72-.09-5.44-.26-8.16-.42s-5.44-.34-8.16-.43a10.51,10.51,0,0,1-5.68-1.35c-1.92-1.21-4.21-1.06-6.72-.89l-.85.05c-7.81.51-14.67,1.35-18.93,6.92-.71,1-4.49,1.52-6.62,1.35-6-.63-12-.12-17.84.39-1.94.16-3.88.33-5.82.46-1.56.09-3.11.13-4.66.17A53.68,53.68,0,0,0,158,26.57a10.94,10.94,0,0,1-6.15-.17c-7.88-3.35-15.76-1.92-23.52-.51-2,.37-4,.73-6.05,1-7.33,1-14,1-20.35-1.52a22.75,22.75,0,0,0-13-1.51l-1.35.23c-8.35,1.45-17.08,3-25.39,3-5.3,0-9.73,1.17-14.18,2.34-2.1.56-4.2,1.11-6.4,1.55-6.15,1.18-10.88-.34-15.38-2.71a22.58,22.58,0,0,0-8.52-2.36A87,87,0,0,1,5.33,23.68c-1.77-.4-3.54-.81-5.33-1.17Z"/></g></g></svg>